{
  "title": "Maggie.2015.WEB-DL.XviD.MP3-RARBG",
  "uid": 11897162,
  "size": 988796398,
  "categoryP": "video",
  "categoryS": "movies",
  "magnet": "?xt=urn:btih:a2b8217bfd2c5159c8bf8cd3cee49d57c194d581&amp;dn=Maggie.2015.WEB-DL.XviD.MP3-RARBG&amp;tr=udp%3A%2F%2Ftracker.openbittorrent.com%3A80&amp;tr=udp%3A%2F%2Fopen.demonii.com%3A1337&amp;tr=udp%3A%2F%2Ftracker.coppersurfer.tk%3A6969&amp;tr=udp%3A%2F%2Fexodus.desync.com%3A6969",
  "seeders": 51,
  "leechers": 9,
  "uploader": "vickey1992",
  "files": 5,
  "time": 1431197047,
  "description": "Format                                   : AVI\nFormat/Info                              : Audio Video Interleave\nFile size                                : 942 MiB\nDuration                                 : 1h 35mn\nOverall bit rate                         : 1 385 Kbps\nMovie name                               : RARBG.COM - Maggie.2015.WEB-DL.XviD.MP3-RARBG\nWriting library                          : VirtualDub build 35491/release\nComment                                  : RARBG.COM - Maggie.2015.WEB-DL.XviD.MP3-RARBG\n\nVideo\nID                                       : 0\nFormat                                   : MPEG-4 Visual\nFormat profile                           : Simple@L5\nFormat settings, BVOP                    : No\nFormat settings, QPel                    : No\nFormat settings, GMC                     : No warppoints\nFormat settings, Matrix                  : Default (H.263)\nCodec ID                                 : XVID\nCodec ID/Hint                            : XviD\nDuration                                 : 1h 35mn\nBit rate                                 : 1 180 Kbps\nWidth                                    : 720 pixels\nHeight                                   : 304 pixels\nDisplay aspect ratio                     : 2.40:1\nFrame rate                               : 23.976 fps\nColor space                              : YUV\nChroma subsampling                       : 4:2:0\nBit depth                                : 8 bits\nScan type                                : Progressive\nCompression mode                         : Lossy\nBits/(Pixel*Frame)                       : 0.225\nStream size                              : 803 MiB (85%)\nWriting library                          : Lavc56.34.100\n\nAudio\nID                                       : 1\nFormat                                   : MPEG Audio\nFormat version                           : Version 1\nFormat profile                           : Layer 3\nMode                                     : Joint stereo\nCodec ID                                 : 55\nCodec ID/Hint                            : MP3\nDuration                                 : 1h 35mn\nBit rate mode                            : Constant\nBit rate                                 : 192 Kbps\nChannel(s)                               : 2 channels\nSampling rate                            : 48.0 KHz\nCompression mode                         : Lossy\nStream size                              : 131 MiB (14%)\nAlignment                                : Aligned on interleaves\nInterleave, duration                     : 24 ms (0.58 video frame)\nInterleave, preload duration             : 504 ms\nWriting library                          : LAME\nNotes:\nGreetz to all!",
  "parsed": {
    "xt": "urn:btih:a2b8217bfd2c5159c8bf8cd3cee49d57c194d581",
    "dn": "Maggie.2015.WEB-DL.XviD.MP3-RARBG",
    "tr": [
      "udp://exodus.desync.com:6969",
      "udp://open.demonii.com:1337",
      "udp://tracker.coppersurfer.tk:6969",
      "udp://tracker.openbittorrent.com:80"
    ],
    "infoHash": "a2b8217bfd2c5159c8bf8cd3cee49d57c194d581",
    "infoHashBuffer": {
      "type": "Buffer",
      "data": [
        162,
        184,
        33,
        123,
        253,
        44,
        81,
        89,
        200,
        191,
        140,
        211,
        206,
        228,
        157,
        87,
        193,
        148,
        213,
        129
      ]
    },
    "name": "Maggie.2015.WEB-DL.XviD.MP3-RARBG",
    "announce": [
      "udp://exodus.desync.com:6969",
      "udp://open.demonii.com:1337",
      "udp://tracker.coppersurfer.tk:6969",
      "udp://tracker.openbittorrent.com:80"
    ],
    "urlList": []
  },
  "previous": 11,
  "peers": 5,
  "last_updated": "2016-12-27T08:56:43.920Z"
}